<svg width="354" height="354" viewBox="0 0 354 354" fill="none" xmlns="http://www.w3.org/2000/svg">
<rect x="176.777" y="353.553" width="250" height="250" rx="20" transform="rotate(-135 176.777 353.553)" fill="url(#paint0_linear_36_168)"/>
<rect x="51.7767" y="51.7767" width="250" height="250" rx="20" fill="url(#paint1_linear_36_168)"/>
<path d="M159.027 223.777H90.6267L109.677 115.777H136.677L121.827 200.377H163.227L159.027 223.777ZM208.697 225.877C194.497 225.877 184.697 222.577 179.297 215.977C175.597 211.377 173.747 205.077 173.747 197.077C173.747 193.377 174.147 189.327 174.947 184.927L180.197 154.927C184.897 128.127 201.297 114.727 229.397 114.727C240.997 114.727 249.797 117.227 255.797 122.227C261.797 127.127 264.797 133.877 264.797 142.477C264.797 145.977 264.297 149.527 263.297 153.127C262.397 156.727 261.497 159.427 260.597 161.227L259.097 163.927H232.547C235.147 160.327 236.447 156.177 236.447 151.477C236.447 142.477 232.697 137.977 225.197 137.977C215.097 137.977 209.047 143.827 207.047 155.527L201.947 184.327C201.447 187.027 201.197 189.677 201.197 192.277C201.197 199.177 205.247 202.627 213.347 202.627C221.547 202.627 226.797 198.527 229.097 190.327H216.797L219.797 173.677H259.547L257.147 186.577L256.397 190.927C252.197 214.227 236.297 225.877 208.697 225.877Z" fill="white"/>
<defs>
<linearGradient id="paint0_linear_36_168" x1="426.777" y1="353.553" x2="183.277" y2="596.553" gradientUnits="userSpaceOnUse">
<stop stop-color="#8049BF"/>
<stop offset="1" stop-color="#ED32D7"/>
</linearGradient>
<linearGradient id="paint1_linear_36_168" x1="301.777" y1="51.7767" x2="58.2767" y2="294.777" gradientUnits="userSpaceOnUse">
<stop stop-color="#8049BF"/>
<stop offset="1" stop-color="#ED32D7"/>
</linearGradient>
</defs>
</svg>
