<svg width="354" height="354" viewBox="0 0 354 354" fill="none" xmlns="http://www.w3.org/2000/svg">
<rect x="176.777" y="353.553" width="250" height="250" rx="20" transform="rotate(-135 176.777 353.553)" fill="url(#paint0_linear_96_774)"/>
<rect x="51.7769" y="57.7767" width="250" height="250" rx="20" fill="url(#paint1_linear_96_774)" fill-opacity="0.8"/>
<path d="M159.027 229.777H90.6269L109.677 121.777H136.677L121.827 206.377H163.227L159.027 229.777ZM208.697 231.877C194.497 231.877 184.697 228.577 179.297 221.977C175.597 217.377 173.747 211.077 173.747 203.077C173.747 199.377 174.147 195.327 174.947 190.927L180.197 160.927C184.897 134.127 201.297 120.727 229.397 120.727C240.997 120.727 249.797 123.227 255.797 128.227C261.797 133.127 264.797 139.877 264.797 148.477C264.797 151.977 264.297 155.527 263.297 159.127C262.397 162.727 261.497 165.427 260.597 167.227L259.097 169.927H232.547C235.147 166.327 236.447 162.177 236.447 157.477C236.447 148.477 232.697 143.977 225.197 143.977C215.097 143.977 209.047 149.827 207.047 161.527L201.947 190.327C201.447 193.027 201.197 195.677 201.197 198.277C201.197 205.177 205.247 208.627 213.347 208.627C221.547 208.627 226.797 204.527 229.097 196.327H216.797L219.797 179.677H259.547L257.147 192.577L256.397 196.927C252.197 220.227 236.297 231.877 208.697 231.877Z" fill="white"/>
<defs>
<linearGradient id="paint0_linear_96_774" x1="426.777" y1="353.553" x2="183.277" y2="596.553" gradientUnits="userSpaceOnUse">
<stop stop-color="#FA6409"/>
<stop offset="1" stop-color="#64CDFE"/>
</linearGradient>
<linearGradient id="paint1_linear_96_774" x1="301.777" y1="57.7767" x2="58.2769" y2="300.777" gradientUnits="userSpaceOnUse">
<stop stop-color="#FA6409"/>
<stop offset="1" stop-color="#64CDFE"/>
</linearGradient>
</defs>
</svg>
